# xmcd
# 
# Track frame offsets:
#     182
#     14742
#     35647
#     52927
#     64532
#     83210
#     96942
#     109712
#     132572
#     147055
#     165700
#     179817
#     195912
#     211822
#     227402
#     245135
#     260547
#     274107
#     295502
#     314892
# 
# Disc length: 4537
# 
# Revision: 10
# Processed by: cddbd v1.5.2PL0 Copyright (c) Steve Scherf et al.
# Submitted via: fre:ac v1.0.31
# 
DISCID=2911b714
DTITLE=Emmylou Harris - Portraits Disc 3
DYEAR=1996
DGENRE=Country
TTITLE0=In My Dreams
TTITLE1=Love Is
TTITLE2=To Know Him Is To Love Him - With Dolly Parton and Linda Ronstadt
TTITLE3=The Pain Of Loving You - With Dolly Parton and Linda Ronstadt
TTITLE4=Farther Along - With Dolly Parton and Linda Ronstadt
TTITLE5=Angel Band
TTITLE6=I Still Miss Someone
TTITLE7=A River For Him
TTITLE8=Heartbreak Hill
TTITLE9=Icy Blue Heart
TTITLE10=Gulf Coast Highway - With Willie Nelson
TTITLE11=We Believe In Happy Endings - With Earl Thomas Conley
TTITLE12=West Texas Waltz - With Flaco Jimenez
TTITLE13=Rollin' And Ramblin' (The Death Of Hank Williams)
TTITLE14=Casey's Last Ride
TTITLE15=Hard Times (Emmylou Harris and The Nash Ramblers)
TTITLE16=Calling My Children Home (Emmylou Harris and The Nash Ramblers)
TTITLE17=Walls Of Time (Emmylou Harris and The Nash Ramblers)
TTITLE18=When I Paint My Masterpiece
TTITLE19=No Regrets
EXTD=Reprise Archives\n9 45308-2
EXTT0=
EXTT1=
EXTT2=
EXTT3=
EXTT4=
EXTT5=
EXTT6=
EXTT7=
EXTT8=
EXTT9=
EXTT10=
EXTT11=
EXTT12=
EXTT13=
EXTT14=
EXTT15=
EXTT16=
EXTT17=
EXTT18=
EXTT19=
PLAYORDER=
